<svg width="28" height="28" viewBox="0 0 28 28" fill="none" xmlns="http://www.w3.org/2000/svg">
<path d="M22.925 3.5H5.075C4.65728 3.5 4.25668 3.66594 3.96131 3.96131C3.66594 4.25668 3.5 4.65728 3.5 5.075V22.925C3.5 23.3427 3.66594 23.7433 3.96131 24.0387C4.25668 24.3341 4.65728 24.5 5.075 24.5H22.925C23.3427 24.5 23.7433 24.3341 24.0387 24.0387C24.3341 23.7433 24.5 23.3427 24.5 22.925V5.075C24.5 4.65728 24.3341 4.25668 24.0387 3.96131C23.7433 3.66594 23.3427 3.5 22.925 3.5ZM9.8 21.35H6.65V11.9H9.8V21.35ZM8.225 10.0625C7.86399 10.0522 7.51403 9.93571 7.21884 9.72763C6.92365 9.51955 6.69632 9.2291 6.56526 8.89256C6.4342 8.55603 6.40522 8.18833 6.48194 7.83542C6.55865 7.48251 6.73767 7.16003 6.99662 6.90827C7.25557 6.65652 7.58296 6.48665 7.93789 6.41991C8.29283 6.35316 8.65956 6.39248 8.99227 6.53297C9.32498 6.67346 9.60892 6.90887 9.8086 7.20981C10.0083 7.51074 10.1149 7.86384 10.115 8.225C10.1067 8.71887 9.90325 9.18937 9.5491 9.53368C9.19495 9.878 8.7189 10.0681 8.225 10.0625ZM21.35 21.35H18.2V16.373C18.2 14.882 17.57 14.3465 16.751 14.3465C16.5109 14.3625 16.2763 14.4258 16.0607 14.5327C15.8451 14.6396 15.6527 14.7881 15.4947 14.9695C15.3366 15.151 15.216 15.3619 15.1396 15.5902C15.0633 15.8184 15.0329 16.0595 15.05 16.2995C15.0448 16.3484 15.0448 16.3976 15.05 16.4465V21.35H11.9V11.9H14.945V13.265C15.2522 12.7978 15.6741 12.4172 16.1705 12.1598C16.6669 11.9024 17.2211 11.7768 17.78 11.795C19.4075 11.795 21.308 12.698 21.308 15.638L21.35 21.35Z" fill="black"/>
</svg>
